<svg xmlns="http://www.w3.org/2000/svg" xmlns:xlink="http://www.w3.org/1999/xlink" width="500" zoomAndPan="magnify" viewBox="0 0 375 374.999991" height="500" preserveAspectRatio="xMidYMid meet" version="1.0"><defs><g/><clipPath id="322dc33708"><path d="M 133.46875 101.542969 L 241.46875 101.542969 L 241.46875 179 L 133.46875 179 Z M 133.46875 101.542969 " clip-rule="nonzero"/></clipPath><clipPath id="fe37af6970"><path d="M 150 131 L 213 131 L 213 210.292969 L 150 210.292969 Z M 150 131 " clip-rule="nonzero"/></clipPath></defs><g clip-path="url(#322dc33708)"><path fill="#ff82c9" d="M 230.238281 101.542969 L 197.820312 101.808594 C 195.882812 101.824219 194.019531 102.207031 192.234375 102.964844 C 190.445312 103.71875 188.871094 104.785156 187.503906 106.167969 L 135.210938 159.015625 C 134.933594 159.296875 134.6875 159.601562 134.46875 159.929688 C 134.253906 160.261719 134.070312 160.609375 133.917969 160.972656 C 133.769531 161.339844 133.65625 161.714844 133.582031 162.105469 C 133.507812 162.492188 133.46875 162.882812 133.46875 163.277344 C 133.472656 163.675781 133.511719 164.066406 133.589844 164.453125 C 133.667969 164.839844 133.78125 165.214844 133.933594 165.582031 C 134.085938 165.945312 134.273438 166.292969 134.492188 166.621094 C 134.710938 166.949219 134.960938 167.25 135.242188 167.53125 L 145.339844 177.59375 C 145.753906 177.105469 146.21875 176.515625 146.738281 175.824219 C 147.980469 174.179688 149.324219 172.191406 150.773438 169.871094 C 152.21875 167.546875 153.730469 164.945312 155.308594 162.066406 L 160.234375 152.957031 C 164.785156 144.132812 169.542969 137.0625 174.503906 131.742188 C 176.261719 129.847656 177.996094 128.382812 179.703125 127.34375 C 181.40625 126.125 183.386719 125.308594 185.636719 124.890625 C 186.203125 124.765625 186.78125 124.703125 187.363281 124.695312 C 187.890625 124.695312 188.488281 124.773438 189.144531 124.929688 C 189.765625 125.070312 190.34375 125.316406 190.871094 125.667969 C 192.007812 126.449219 192.34375 127.484375 191.878906 128.785156 C 191.671875 129.5625 191.273438 130.730469 190.675781 132.289062 L 188.582031 137.855469 C 183.695312 151.398438 181.019531 163.726562 180.558594 174.832031 C 181.929688 172.472656 183.3125 169.890625 184.707031 167.085938 L 189.089844 158.40625 L 193.703125 149.570312 C 200.8125 136.335938 207.421875 128.757812 213.523438 126.835938 C 214.789062 126.421875 215.851562 126.214844 216.703125 126.214844 C 217.558594 126.214844 218.230469 126.324219 218.71875 126.542969 C 219.199219 126.757812 219.640625 127.039062 220.039062 127.382812 C 220.945312 128.210938 221.253906 129.0625 220.96875 129.929688 C 220.683594 130.800781 220.308594 131.910156 219.84375 133.261719 L 214.222656 149.726562 L 212.203125 156.1875 C 209.980469 163.660156 208.660156 169.394531 208.25 173.390625 C 208.09375 175.078125 208.28125 176.394531 208.8125 177.34375 C 209.339844 178.289062 210.070312 178.761719 211.003906 178.765625 C 211.933594 178.765625 212.664062 178.691406 213.191406 178.550781 C 213.667969 178.425781 214.125 178.265625 214.570312 178.0625 L 215.355469 177.699219 L 237.160156 155.660156 C 238.527344 154.28125 239.582031 152.691406 240.320312 150.894531 C 241.058594 149.09375 241.429688 147.222656 241.433594 145.277344 L 241.46875 112.742188 C 241.476562 106.523438 236.429688 101.492188 230.238281 101.542969 Z M 230.039062 120.203125 C 229.804688 120.441406 229.550781 120.652344 229.277344 120.835938 C 229.003906 121.023438 228.710938 121.179688 228.40625 121.308594 C 228.101562 121.4375 227.785156 121.535156 227.460938 121.601562 C 227.136719 121.664062 226.808594 121.699219 226.476562 121.699219 C 226.144531 121.703125 225.816406 121.671875 225.492188 121.605469 C 225.167969 121.542969 224.851562 121.449219 224.546875 121.320312 C 224.238281 121.195312 223.949219 121.039062 223.671875 120.855469 C 223.394531 120.671875 223.140625 120.464844 222.90625 120.230469 C 222.667969 119.996094 222.460938 119.738281 222.273438 119.464844 C 222.089844 119.1875 221.933594 118.898438 221.804688 118.589844 C 221.679688 118.285156 221.582031 117.96875 221.515625 117.640625 C 221.449219 117.316406 221.417969 116.988281 221.414062 116.652344 C 221.414062 116.320312 221.445312 115.992188 221.507812 115.664062 C 221.570312 115.339844 221.667969 115.023438 221.792969 114.714844 C 221.917969 114.40625 222.074219 114.113281 222.253906 113.839844 C 222.4375 113.5625 222.648438 113.304688 222.878906 113.070312 C 223.113281 112.832031 223.367188 112.621094 223.644531 112.4375 C 223.917969 112.25 224.207031 112.09375 224.511719 111.964844 C 224.820312 111.835938 225.132812 111.738281 225.457031 111.671875 C 225.785156 111.609375 226.113281 111.574219 226.441406 111.574219 C 226.773438 111.570312 227.101562 111.601562 227.425781 111.667969 C 227.753906 111.730469 228.066406 111.824219 228.375 111.953125 C 228.679688 112.078125 228.972656 112.234375 229.25 112.417969 C 229.523438 112.601562 229.78125 112.808594 230.015625 113.042969 C 230.25 113.277344 230.460938 113.53125 230.644531 113.808594 C 230.832031 114.085938 230.988281 114.375 231.113281 114.683594 C 231.242188 114.988281 231.339844 115.304688 231.40625 115.632812 C 231.472656 115.957031 231.503906 116.285156 231.503906 116.621094 C 231.507812 116.953125 231.476562 117.28125 231.410156 117.609375 C 231.347656 117.933594 231.253906 118.25 231.128906 118.558594 C 231.003906 118.867188 230.847656 119.160156 230.664062 119.4375 C 230.480469 119.714844 230.273438 119.96875 230.039062 120.207031 Z M 230.039062 120.203125 " fill-opacity="1" fill-rule="nonzero"/></g><g clip-path="url(#fe37af6970)"><path fill="#d83e96" d="M 204.855469 184.972656 C 203.820312 184.539062 202.933594 183.898438 202.195312 183.046875 C 200.589844 181.253906 199.789062 178.777344 199.792969 175.613281 C 199.792969 172.238281 200.4375 168.117188 201.730469 163.253906 C 203.023438 158.386719 204.273438 154.222656 205.476562 150.757812 C 206.679688 147.292969 207.914062 143.992188 209.183594 140.851562 L 212.671875 131.9375 C 208.84375 135.386719 203.996094 142.640625 198.125 153.695312 L 188.742188 171.523438 C 183.722656 180.917969 180.144531 185.617188 177.996094 185.617188 C 175.902344 185.617188 174.46875 184.707031 173.691406 182.890625 C 172.996094 181.152344 172.644531 178.199219 172.644531 174.035156 C 172.644531 169.871094 172.976562 165.871094 173.632812 162.046875 C 174.292969 158.21875 175.128906 154.476562 176.136719 150.816406 C 177.894531 144.355469 180.167969 137.941406 182.960938 131.582031 C 180.246094 133.117188 177.234375 136.53125 173.925781 141.824219 C 171.390625 146.054688 169.609375 149.140625 168.574219 151.085938 L 158.570312 169.578125 C 155.207031 175.71875 152.375 179.964844 150.074219 182.316406 L 176.390625 208.542969 C 176.667969 208.824219 176.972656 209.070312 177.300781 209.289062 C 177.628906 209.507812 177.976562 209.691406 178.339844 209.84375 C 178.703125 209.992188 179.078125 210.105469 179.464844 210.179688 C 179.851562 210.257812 180.242188 210.292969 180.636719 210.292969 C 181.03125 210.292969 181.417969 210.25 181.804688 210.171875 C 182.191406 210.09375 182.566406 209.980469 182.929688 209.828125 C 183.292969 209.675781 183.636719 209.488281 183.964844 209.265625 C 184.292969 209.046875 184.59375 208.796875 184.871094 208.515625 L 207.582031 185.5625 C 206.492188 185.46875 205.578125 185.277344 204.855469 184.972656 Z M 204.855469 184.972656 " fill-opacity="1" fill-rule="nonzero"/></g><g fill="#d83e96" fill-opacity="1"><g transform="translate(120.864457, 248.88385)"><g><path d="M 22.988281 -25.75 C 21.453125 -26.136719 20.03125 -24.523438 17.921875 -20.378906 C 16.425781 -17.421875 14.351562 -13.46875 13.046875 -10.898438 L 13.085938 -10.898438 L 12.816406 -10.515625 C 12.78125 -10.628906 12.78125 -10.746094 12.78125 -10.898438 L 12.78125 -10.9375 C 12.472656 -12.933594 12.203125 -15.851562 11.933594 -18 C 11.589844 -20.53125 11.667969 -23.21875 10.976562 -25.980469 L 10.9375 -25.980469 C 10.667969 -26.710938 10.285156 -26.980469 9.402344 -27.019531 C 8.480469 -27.09375 7.789062 -26.789062 7.636719 -26.210938 C 5.566406 -20.03125 3.070312 -13.433594 1.152344 -7.367188 C 0.460938 -5.105469 -0.34375 -2.726562 -0.921875 -0.652344 C -1.113281 0.191406 -0.730469 0.652344 0.308594 0.765625 C 1.535156 0.882812 1.726562 0.382812 1.878906 -0.152344 C 2.761719 -3.183594 3.800781 -6.253906 4.757812 -9.058594 C 6.0625 -12.816406 7.253906 -17.117188 8.636719 -20.761719 C 8.671875 -19.035156 8.980469 -15.964844 9.25 -12.050781 C 9.324219 -10.667969 9.710938 -9.289062 10.171875 -7.753906 C 10.515625 -6.410156 12.703125 -6.023438 13.894531 -6.984375 C 14.46875 -7.40625 14.699219 -7.714844 15.042969 -8.441406 C 16.082031 -10.628906 19.917969 -18.957031 21.605469 -21.683594 C 21.53125 -21.375 21.53125 -20.953125 21.335938 -20.1875 C 20.300781 -15.964844 19.726562 -12.585938 19.496094 -6.832031 C 19.457031 -4.949219 19.496094 -2.148438 20.03125 0.113281 C 20.261719 0.960938 21.605469 1.804688 22.605469 1.6875 L 22.679688 1.6875 C 23.792969 1.457031 24.023438 1.152344 23.679688 0.382812 C 23.296875 -0.382812 22.757812 -0.613281 22.527344 -4.988281 C 22.296875 -9.324219 23.257812 -14.277344 24.601562 -21.796875 C 24.984375 -23.871094 24.445312 -25.40625 22.988281 -25.75 Z M 22.988281 -25.75 "/></g></g></g><g fill="#d83e96" fill-opacity="1"><g transform="translate(160.233913, 248.88385)"><g><path d="M 3.722656 0.269531 C 5.257812 0.691406 7.40625 0.34375 8.328125 -0.539062 C 10.9375 -3.03125 12.128906 -6.0625 12.242188 -10.4375 C 12.242188 -11.28125 11.742188 -11.859375 10.785156 -12.203125 C 9.941406 -12.511719 9.132812 -12.203125 9.289062 -11.476562 L 9.289062 -11.511719 C 9.324219 -10.976562 9.480469 -10.363281 9.363281 -9.902344 C 8.710938 -7.101562 8.058594 -4.375 6.332031 -2.496094 C 5.410156 -1.457031 5.066406 -1.265625 4.414062 -1.496094 C 3.722656 -1.6875 3.109375 -2.6875 2.839844 -4.105469 C 2.457031 -5.832031 2.496094 -7.101562 2.992188 -9.210938 C 3.683594 -12.128906 4.335938 -14.621094 7.0625 -15.503906 C 7.675781 -15.695312 7.867188 -15.621094 8.136719 -15.199219 C 8.40625 -14.8125 8.289062 -14.316406 8.40625 -14.007812 C 8.597656 -13.507812 9.25 -13.085938 9.941406 -13.046875 L 9.976562 -13.046875 C 10.59375 -13.046875 11.128906 -13.394531 11.246094 -13.894531 C 11.667969 -15.464844 9.824219 -17.269531 7.675781 -17.347656 C 5.640625 -17.460938 3.914062 -16.578125 2.300781 -14.660156 C 0.765625 -12.78125 0.113281 -11.128906 -0.421875 -7.714844 C -1.074219 -3.300781 0.191406 -0.804688 3.722656 0.269531 Z M 3.722656 0.269531 "/></g></g></g><g fill="#d83e96" fill-opacity="1"><g transform="translate(186.980559, 248.88385)"><g><path d="M 6.714844 -0.421875 C 7.636719 -1.226562 8.328125 -2.035156 8.789062 -2.800781 C 9.363281 -1.613281 10.398438 -0.804688 11.820312 -0.421875 C 13.277344 -0.0390625 15.121094 -0.613281 15.886719 -1.726562 C 16.347656 -2.339844 16.695312 -2.800781 16.960938 -3.300781 C 17.578125 -4.488281 17.960938 -4.914062 17.84375 -5.757812 L 17.808594 -5.796875 C 17.730469 -6.0625 17.84375 -6.371094 17.078125 -6.640625 L 16.960938 -6.640625 C 16.425781 -6.675781 16.003906 -6.484375 15.773438 -6.023438 C 15.160156 -4.757812 14.390625 -3.644531 13.625 -2.800781 C 12.742188 -1.804688 11.898438 -2.074219 11.476562 -3.300781 C 10.824219 -5.105469 10.824219 -7.175781 11.476562 -9.632812 C 12.78125 -14.773438 13.507812 -18.765625 14.238281 -22.796875 C 14.390625 -23.640625 14.351562 -24.214844 14.160156 -24.832031 C 14.007812 -25.445312 13.355469 -25.828125 12.625 -25.828125 C 11.359375 -25.90625 11.398438 -25.097656 11.320312 -24.792969 C 10.707031 -21.414062 9.785156 -18.921875 9.25 -15.621094 C 7.675781 -17.15625 5.105469 -17.308594 3.570312 -15.695312 C 1.113281 -13.164062 -0.382812 -9.480469 -0.574219 -5.566406 C -0.652344 -4.183594 -0.191406 -2.726562 0.765625 -1.226562 C 2.1875 0.882812 4.914062 1.265625 6.714844 -0.421875 Z M 3.761719 -1.457031 C 3.53125 -1.382812 3.378906 -1.382812 3.148438 -1.648438 C 2.648438 -2.226562 2.265625 -3.683594 2.378906 -5.144531 C 2.648438 -8.480469 3.300781 -11.820312 5.71875 -14.238281 C 6.792969 -15.3125 6.832031 -15.351562 7.484375 -13.738281 L 7.523438 -13.699219 C 7.789062 -13.242188 8.210938 -12.972656 8.710938 -13.046875 C 8.75 -13.046875 8.636719 -12.894531 8.636719 -12.433594 C 8.636719 -9.59375 7.445312 -5.796875 5.871094 -3.453125 C 5.105469 -2.417969 4.566406 -1.765625 3.761719 -1.457031 Z M 3.761719 -1.457031 "/></g></g></g><g fill="#d83e96" fill-opacity="1"><g transform="translate(215.530459, 248.88385)"><g><path d="M 13.855469 -6.832031 C 12.855469 -7.101562 12.472656 -6.140625 12.359375 -5.988281 C 10.707031 -3.875 10.054688 -3.222656 8.328125 -2.226562 C 6.101562 -0.921875 4.375 -0.84375 3.453125 -2.109375 C 2.878906 -2.878906 2.53125 -4.03125 2.496094 -5.410156 C 2.496094 -6.332031 2.570312 -7.136719 2.726562 -7.675781 C 2.839844 -8.019531 3.683594 -7.789062 4.527344 -7.90625 C 8.210938 -8.367188 11.128906 -12.050781 10.476562 -15.390625 C 10.054688 -17.539062 7.367188 -18.652344 5.449219 -17.539062 C 4.527344 -17 3.722656 -16.347656 3.109375 -15.621094 C 1.113281 -12.933594 0.078125 -10.785156 -0.460938 -7.332031 C -0.691406 -5.871094 -0.5 -4.835938 -0.421875 -3.722656 C -0.0390625 -0.460938 3.453125 1.265625 7.558594 0.382812 C 10.015625 -0.191406 12.242188 -1.6875 14.007812 -3.953125 L 14.046875 -3.992188 C 14.507812 -4.71875 14.660156 -5.179688 14.738281 -5.757812 C 14.773438 -6.410156 14.621094 -6.640625 13.855469 -6.832031 Z M 3.148438 -9.671875 C 3.492188 -11.015625 4.222656 -12.664062 4.875 -13.664062 C 5.449219 -14.546875 6.140625 -15.199219 6.753906 -15.621094 C 7.40625 -16.042969 7.484375 -16.082031 7.753906 -15.886719 C 7.867188 -15.8125 8.019531 -15.121094 7.945312 -14.738281 C 7.789062 -13.625 7.101562 -12.359375 6.601562 -11.742188 C 5.566406 -10.667969 4.683594 -9.976562 3.492188 -9.710938 C 3.222656 -9.632812 3.109375 -9.59375 3.109375 -9.554688 C 3.109375 -9.59375 3.148438 -9.59375 3.148438 -9.671875 Z M 3.148438 -9.671875 "/></g></g></g><g fill="#d83e96" fill-opacity="1"><g transform="translate(240.934258, 248.88385)"><g><path d="M 13.855469 -6.832031 C 12.855469 -7.101562 12.472656 -6.140625 12.359375 -5.988281 C 10.707031 -3.875 10.054688 -3.222656 8.328125 -2.226562 C 6.101562 -0.921875 4.375 -0.84375 3.453125 -2.109375 C 2.878906 -2.878906 2.53125 -4.03125 2.496094 -5.410156 C 2.496094 -6.332031 2.570312 -7.136719 2.726562 -7.675781 C 2.839844 -8.019531 3.683594 -7.789062 4.527344 -7.90625 C 8.210938 -8.367188 11.128906 -12.050781 10.476562 -15.390625 C 10.054688 -17.539062 7.367188 -18.652344 5.449219 -17.539062 C 4.527344 -17 3.722656 -16.347656 3.109375 -15.621094 C 1.113281 -12.933594 0.078125 -10.785156 -0.460938 -7.332031 C -0.691406 -5.871094 -0.5 -4.835938 -0.421875 -3.722656 C -0.0390625 -0.460938 3.453125 1.265625 7.558594 0.382812 C 10.015625 -0.191406 12.242188 -1.6875 14.007812 -3.953125 L 14.046875 -3.992188 C 14.507812 -4.71875 14.660156 -5.179688 14.738281 -5.757812 C 14.773438 -6.410156 14.621094 -6.640625 13.855469 -6.832031 Z M 3.148438 -9.671875 C 3.492188 -11.015625 4.222656 -12.664062 4.875 -13.664062 C 5.449219 -14.546875 6.140625 -15.199219 6.753906 -15.621094 C 7.40625 -16.042969 7.484375 -16.082031 7.753906 -15.886719 C 7.867188 -15.8125 8.019531 -15.121094 7.945312 -14.738281 C 7.789062 -13.625 7.101562 -12.359375 6.601562 -11.742188 C 5.566406 -10.667969 4.683594 -9.976562 3.492188 -9.710938 C 3.222656 -9.632812 3.109375 -9.59375 3.109375 -9.554688 C 3.109375 -9.59375 3.148438 -9.59375 3.148438 -9.671875 Z M 3.148438 -9.671875 "/></g></g></g><g fill="#ff82c9" fill-opacity="1"><g transform="translate(123.492283, 271.685373)"><g><path d="M 1.945312 -6.488281 L 5.742188 -6.488281 L 5.742188 -7.21875 L 1.046875 -7.21875 L 1.046875 0 L 1.945312 0 L 1.945312 -3.242188 L 5.324219 -3.242188 L 5.324219 -3.976562 L 1.945312 -3.976562 Z M 1.945312 -6.488281 "/></g></g></g><g fill="#ff82c9" fill-opacity="1"><g transform="translate(132.653758, 271.685373)"><g><path d="M 4.769531 -2.554688 L 5.628906 0 L 6.601562 0 L 4.113281 -7.21875 L 2.898438 -7.21875 L 0.304688 0 L 1.265625 0 L 2.113281 -2.554688 Z M 2.363281 -3.285156 L 3.484375 -6.507812 L 4.53125 -3.285156 Z M 2.363281 -3.285156 "/></g></g></g><g fill="#ff82c9" fill-opacity="1"><g transform="translate(142.567866, 271.685373)"><g><path d="M 3.285156 -7.367188 C 1.957031 -7.367188 0.878906 -6.582031 0.878906 -5.335938 C 0.878906 -4.144531 1.769531 -3.628906 3.042969 -3.335938 C 4.3125 -3.042969 4.8125 -2.648438 4.8125 -1.769531 C 4.8125 -1.015625 4.144531 -0.566406 3.316406 -0.566406 C 2.375 -0.566406 1.714844 -1.097656 1.507812 -2.050781 L 0.542969 -2.050781 C 0.699219 -0.660156 1.707031 0.144531 3.296875 0.144531 C 4.6875 0.144531 5.773438 -0.667969 5.773438 -1.9375 C 5.773438 -3.160156 4.980469 -3.808594 3.390625 -4.175781 C 2.292969 -4.425781 1.839844 -4.761719 1.839844 -5.546875 C 1.839844 -6.296875 2.449219 -6.652344 3.210938 -6.652344 C 4.121094 -6.652344 4.65625 -6.132812 4.738281 -5.222656 L 5.703125 -5.222656 C 5.566406 -6.457031 4.78125 -7.367188 3.285156 -7.367188 Z M 3.285156 -7.367188 "/></g></g></g><g fill="#ff82c9" fill-opacity="1"><g transform="translate(151.917505, 271.685373)"><g><path d="M 6.820312 -7.21875 L 5.921875 -7.21875 L 5.921875 -3.914062 L 1.945312 -3.914062 L 1.945312 -7.21875 L 1.046875 -7.21875 L 1.046875 0 L 1.945312 0 L 1.945312 -3.160156 L 5.921875 -3.160156 L 5.921875 0 L 6.820312 0 Z M 6.820312 -7.21875 "/></g></g></g><g fill="#ff82c9" fill-opacity="1"><g transform="translate(162.782846, 271.685373)"><g><path d="M 1.945312 0 L 1.945312 -7.21875 L 1.046875 -7.21875 L 1.046875 0 Z M 1.945312 0 "/></g></g></g><g fill="#ff82c9" fill-opacity="1"><g transform="translate(168.777032, 271.685373)"><g><path d="M 3.902344 -7.367188 C 1.707031 -7.367188 0.492188 -5.816406 0.492188 -3.609375 C 0.492188 -1.414062 1.707031 0.144531 3.902344 0.144531 C 6.101562 0.144531 7.3125 -1.414062 7.3125 -3.609375 C 7.3125 -5.816406 6.101562 -7.367188 3.902344 -7.367188 Z M 3.902344 -0.566406 C 2.386719 -0.566406 1.496094 -1.738281 1.496094 -3.609375 C 1.496094 -5.492188 2.386719 -6.652344 3.902344 -6.652344 C 5.417969 -6.652344 6.308594 -5.492188 6.308594 -3.609375 C 6.308594 -1.738281 5.417969 -0.566406 3.902344 -0.566406 Z M 3.902344 -0.566406 "/></g></g></g><g fill="#ff82c9" fill-opacity="1"><g transform="translate(179.715534, 271.685373)"><g><path d="M 6.695312 0 L 6.675781 -7.21875 L 5.796875 -7.21875 L 5.796875 -3.609375 C 5.796875 -2.761719 5.808594 -1.726562 5.828125 -0.878906 L 2.425781 -7.21875 L 1.046875 -7.21875 L 1.046875 0 L 1.945312 0 L 1.945312 -3.609375 C 1.945312 -4.457031 1.9375 -5.492188 1.914062 -6.339844 L 5.316406 0 Z M 6.695312 0 "/></g></g></g><g fill="#ff82c9" fill-opacity="1"><g transform="translate(190.455436, 271.685373)"><g/></g></g><g fill="#ff82c9" fill-opacity="1"><g transform="translate(195.947879, 271.685373)"><g><path d="M 6.507812 -4.027344 L 5.503906 -4.027344 L 5.503906 -5.199219 L 4.601562 -5.199219 L 4.601562 -4.027344 L 3.976562 -4.027344 C 3.746094 -4.027344 3.515625 -4.027344 3.328125 -4.039062 C 2.554688 -4.082031 1.96875 -4.363281 1.96875 -5.347656 C 1.96875 -6.152344 2.53125 -6.652344 3.484375 -6.652344 C 3.996094 -6.652344 4.34375 -6.621094 4.769531 -6.539062 L 4.769531 -7.261719 C 4.375 -7.335938 4.027344 -7.367188 3.515625 -7.367188 C 2.019531 -7.367188 0.960938 -6.527344 0.960938 -5.292969 C 0.960938 -4.445312 1.527344 -3.871094 2.324219 -3.683594 C 1.296875 -3.464844 0.667969 -2.679688 0.667969 -1.808594 C 0.667969 -0.28125 1.839844 0.144531 3.527344 0.144531 C 4.226562 0.144531 4.90625 0.0625 5.503906 -0.0742188 L 5.503906 -3.296875 L 6.507812 -3.296875 Z M 1.675781 -1.945312 C 1.675781 -2.617188 2.132812 -3.171875 3.335938 -3.273438 C 3.546875 -3.296875 3.746094 -3.296875 3.976562 -3.296875 L 4.601562 -3.296875 L 4.601562 -0.660156 C 4.246094 -0.585938 3.964844 -0.566406 3.546875 -0.566406 C 2.238281 -0.566406 1.675781 -0.941406 1.675781 -1.945312 Z M 1.675781 -1.945312 "/></g></g></g><g fill="#ff82c9" fill-opacity="1"><g transform="translate(206.018782, 271.685373)"><g/></g></g><g fill="#ff82c9" fill-opacity="1"><g transform="translate(211.511224, 271.685373)"><g><path d="M 8.246094 -7.21875 L 6.789062 -7.21875 L 4.667969 -0.765625 L 2.53125 -7.21875 L 1.046875 -7.21875 L 1.046875 0 L 1.945312 0 L 1.945312 -3.714844 C 1.945312 -4.601562 1.945312 -5.597656 1.925781 -6.382812 C 2.15625 -5.609375 2.488281 -4.601562 2.78125 -3.746094 L 4.082031 0 L 5.210938 0 L 6.488281 -3.726562 C 6.789062 -4.601562 7.125 -5.617188 7.367188 -6.402344 C 7.34375 -5.617188 7.34375 -4.613281 7.34375 -3.714844 L 7.34375 0 L 8.246094 0 Z M 8.246094 -7.21875 "/></g></g></g><g fill="#ff82c9" fill-opacity="1"><g transform="translate(223.798184, 271.685373)"><g><path d="M 3.902344 -7.367188 C 1.707031 -7.367188 0.492188 -5.816406 0.492188 -3.609375 C 0.492188 -1.414062 1.707031 0.144531 3.902344 0.144531 C 6.101562 0.144531 7.3125 -1.414062 7.3125 -3.609375 C 7.3125 -5.816406 6.101562 -7.367188 3.902344 -7.367188 Z M 3.902344 -0.566406 C 2.386719 -0.566406 1.496094 -1.738281 1.496094 -3.609375 C 1.496094 -5.492188 2.386719 -6.652344 3.902344 -6.652344 C 5.417969 -6.652344 6.308594 -5.492188 6.308594 -3.609375 C 6.308594 -1.738281 5.417969 -0.566406 3.902344 -0.566406 Z M 3.902344 -0.566406 "/></g></g></g><g fill="#ff82c9" fill-opacity="1"><g transform="translate(234.736687, 271.685373)"><g><path d="M 4.164062 -7.175781 C 3.796875 -7.21875 3.628906 -7.21875 3.242188 -7.21875 L 1.046875 -7.21875 L 1.046875 0 L 3.191406 0 C 3.578125 0 3.746094 0 4.113281 -0.0429688 C 5.785156 -0.25 7.019531 -1.570312 7.019531 -3.691406 C 7.019531 -5.847656 5.839844 -6.96875 4.164062 -7.175781 Z M 4.019531 -0.785156 C 3.789062 -0.742188 3.515625 -0.730469 3.140625 -0.730469 L 1.945312 -0.730469 L 1.945312 -6.488281 L 3.191406 -6.488281 C 3.566406 -6.488281 3.839844 -6.476562 4.070312 -6.433594 C 5.292969 -6.234375 6.035156 -5.292969 6.035156 -3.691406 C 6.035156 -1.988281 5.242188 -0.984375 4.019531 -0.785156 Z M 4.019531 -0.785156 "/></g></g></g><g fill="#ff82c9" fill-opacity="1"><g transform="translate(245.382507, 271.685373)"><g><path d="M 5.847656 -0.730469 L 1.945312 -0.730469 L 1.945312 -3.242188 L 5.429688 -3.242188 L 5.429688 -3.976562 L 1.945312 -3.976562 L 1.945312 -6.488281 L 5.742188 -6.488281 L 5.742188 -7.21875 L 1.046875 -7.21875 L 1.046875 0 L 5.847656 0 Z M 5.847656 -0.730469 "/></g></g></g></svg>