<svg xmlns="http://www.w3.org/2000/svg" xmlns:xlink="http://www.w3.org/1999/xlink" width="500" zoomAndPan="magnify" viewBox="0 0 375 374.999991" height="500" preserveAspectRatio="xMidYMid meet" version="1.0"><defs><clipPath id="2a75a2a5d1"><path d="M 0.609375 0 L 374.109375 0 L 374.109375 267 L 0.609375 267 Z M 0.609375 0 " clip-rule="nonzero"/></clipPath></defs><g clip-path="url(#2a75a2a5d1)"><path fill="#ff82c9" d="M 335.261719 0.0078125 L 223.148438 0.917969 C 219.832031 0.945312 216.546875 1.292969 213.292969 1.960938 C 210.042969 2.632812 206.886719 3.613281 203.828125 4.902344 C 200.769531 6.191406 197.863281 7.765625 195.113281 9.625 C 192.359375 11.480469 189.816406 13.589844 187.476562 15.945312 L 6.632812 198.1875 C 6.152344 198.667969 5.699219 199.175781 5.269531 199.699219 C 4.839844 200.226562 4.4375 200.773438 4.0625 201.339844 C 3.6875 201.90625 3.339844 202.492188 3.023438 203.09375 C 2.703125 203.691406 2.417969 204.308594 2.160156 204.9375 C 1.902344 205.566406 1.675781 206.207031 1.480469 206.855469 C 1.285156 207.507812 1.121094 208.167969 0.992188 208.835938 C 0.863281 209.503906 0.765625 210.175781 0.699219 210.851562 C 0.636719 211.527344 0.605469 212.207031 0.605469 212.886719 C 0.609375 213.566406 0.644531 214.242188 0.714844 214.921875 C 0.78125 215.597656 0.886719 216.269531 1.019531 216.933594 C 1.15625 217.601562 1.320312 218.257812 1.519531 218.910156 C 1.71875 219.558594 1.953125 220.195312 2.214844 220.824219 C 2.476562 221.453125 2.769531 222.0625 3.089844 222.664062 C 3.414062 223.261719 3.761719 223.84375 4.140625 224.40625 C 4.523438 224.96875 4.929688 225.515625 5.359375 226.039062 C 5.792969 226.5625 6.25 227.0625 6.734375 227.542969 L 41.648438 262.242188 C 43.082031 260.554688 44.699219 258.523438 46.492188 256.148438 C 50.785156 250.46875 55.433594 243.625 60.441406 235.613281 C 65.449219 227.605469 70.679688 218.632812 76.132812 208.707031 L 93.160156 177.292969 C 108.898438 146.867188 125.351562 122.484375 142.519531 104.140625 C 148.601562 97.609375 154.589844 92.550781 160.492188 88.972656 C 166.390625 84.765625 173.230469 81.949219 181.015625 80.515625 C 182.980469 80.085938 184.972656 79.863281 186.984375 79.84375 C 188.816406 79.84375 190.871094 80.113281 193.152344 80.648438 C 195.300781 81.125 197.292969 81.976562 199.121094 83.199219 C 203.054688 85.882812 204.21875 89.460938 202.609375 93.9375 C 201.894531 96.621094 200.503906 100.648438 198.445312 106.019531 L 191.203125 125.214844 C 174.304688 171.921875 165.050781 214.425781 163.449219 252.726562 C 168.191406 244.585938 172.972656 235.683594 177.800781 226.015625 L 192.957031 196.082031 L 208.914062 165.613281 C 233.503906 119.976562 256.351562 93.847656 277.457031 87.226562 C 281.835938 85.792969 285.503906 85.074219 288.457031 85.074219 C 291.40625 85.074219 293.734375 85.453125 295.429688 86.214844 C 297.089844 86.953125 298.613281 87.914062 299.988281 89.101562 C 303.121094 91.96875 304.191406 94.898438 303.207031 97.894531 C 302.222656 100.890625 300.925781 104.71875 299.320312 109.378906 L 279.871094 166.148438 L 272.898438 188.429688 C 265.207031 214.199219 260.644531 233.976562 259.214844 247.757812 C 258.679688 253.574219 259.328125 258.117188 261.160156 261.382812 C 262.992188 264.648438 265.519531 266.28125 268.738281 266.28125 C 271.957031 266.28125 274.480469 266.035156 276.316406 265.542969 C 277.953125 265.121094 279.539062 264.5625 281.078125 263.863281 L 283.796875 262.609375 L 359.207031 186.617188 C 361.546875 184.261719 363.632812 181.699219 365.472656 178.933594 C 367.308594 176.167969 368.863281 173.246094 370.128906 170.175781 C 371.394531 167.105469 372.351562 163.941406 373 160.683594 C 373.648438 157.425781 373.972656 154.136719 373.976562 150.8125 L 374.109375 38.617188 C 374.132812 17.179688 356.679688 -0.164062 335.261719 0.0078125 Z M 334.578125 64.355469 C 334.175781 64.761719 333.753906 65.144531 333.3125 65.511719 C 332.871094 65.875 332.414062 66.214844 331.941406 66.535156 C 331.464844 66.855469 330.976562 67.148438 330.476562 67.421875 C 329.972656 67.691406 329.457031 67.9375 328.929688 68.160156 C 328.402344 68.378906 327.867188 68.574219 327.320312 68.742188 C 326.773438 68.910156 326.21875 69.050781 325.660156 69.164062 C 325.097656 69.277344 324.535156 69.363281 323.964844 69.421875 C 323.398438 69.480469 322.828125 69.507812 322.257812 69.511719 C 321.683594 69.511719 321.117188 69.488281 320.546875 69.433594 C 319.976562 69.378906 319.414062 69.296875 318.851562 69.1875 C 318.292969 69.078125 317.738281 68.941406 317.191406 68.777344 C 316.640625 68.613281 316.105469 68.421875 315.574219 68.207031 C 315.046875 67.988281 314.53125 67.746094 314.023438 67.476562 C 313.519531 67.210938 313.03125 66.917969 312.554688 66.601562 C 312.078125 66.285156 311.617188 65.949219 311.175781 65.585938 C 310.730469 65.226562 310.308594 64.84375 309.902344 64.441406 C 309.496094 64.035156 309.113281 63.613281 308.746094 63.175781 C 308.382812 62.734375 308.042969 62.277344 307.722656 61.800781 C 307.402344 61.328125 307.109375 60.839844 306.835938 60.335938 C 306.566406 59.832031 306.320312 59.316406 306.101562 58.789062 C 305.878906 58.261719 305.6875 57.722656 305.519531 57.175781 C 305.351562 56.628906 305.210938 56.078125 305.097656 55.515625 C 304.984375 54.957031 304.898438 54.390625 304.839844 53.820312 C 304.78125 53.253906 304.75 52.683594 304.75 52.109375 C 304.746094 51.539062 304.773438 50.96875 304.828125 50.398438 C 304.882812 49.828125 304.964844 49.265625 305.074219 48.703125 C 305.183594 48.140625 305.320312 47.585938 305.484375 47.039062 C 305.648438 46.492188 305.835938 45.953125 306.054688 45.425781 C 306.269531 44.894531 306.511719 44.378906 306.78125 43.871094 C 307.046875 43.367188 307.339844 42.875 307.65625 42.398438 C 307.972656 41.921875 308.308594 41.464844 308.671875 41.019531 C 309.03125 40.578125 309.414062 40.152344 309.816406 39.746094 C 310.21875 39.339844 310.640625 38.957031 311.082031 38.589844 C 311.523438 38.226562 311.980469 37.886719 312.453125 37.566406 C 312.925781 37.246094 313.417969 36.949219 313.917969 36.679688 C 314.421875 36.410156 314.9375 36.164062 315.464844 35.941406 C 315.992188 35.722656 316.527344 35.527344 317.074219 35.359375 C 317.621094 35.191406 318.175781 35.050781 318.734375 34.9375 C 319.292969 34.824219 319.859375 34.738281 320.425781 34.679688 C 320.996094 34.621094 321.566406 34.589844 322.136719 34.589844 C 322.707031 34.585938 323.277344 34.613281 323.847656 34.667969 C 324.417969 34.722656 324.980469 34.804688 325.542969 34.914062 C 326.101562 35.023438 326.65625 35.160156 327.203125 35.324219 C 327.75 35.488281 328.289062 35.679688 328.816406 35.894531 C 329.347656 36.113281 329.863281 36.355469 330.367188 36.625 C 330.875 36.890625 331.363281 37.183594 331.839844 37.5 C 332.316406 37.816406 332.777344 38.152344 333.21875 38.515625 C 333.660156 38.875 334.085938 39.257812 334.492188 39.660156 C 334.898438 40.0625 335.28125 40.484375 335.644531 40.925781 C 336.011719 41.367188 336.351562 41.824219 336.671875 42.300781 C 336.992188 42.773438 337.285156 43.261719 337.558594 43.765625 C 337.828125 44.269531 338.074219 44.785156 338.292969 45.3125 C 338.515625 45.839844 338.710938 46.378906 338.878906 46.925781 C 339.042969 47.472656 339.183594 48.023438 339.300781 48.585938 C 339.414062 49.144531 339.5 49.710938 339.554688 50.28125 C 339.613281 50.847656 339.644531 51.417969 339.644531 51.992188 C 339.648438 52.5625 339.621094 53.132812 339.566406 53.703125 C 339.515625 54.273438 339.433594 54.839844 339.324219 55.398438 C 339.210938 55.960938 339.074219 56.515625 338.910156 57.0625 C 338.746094 57.609375 338.558594 58.148438 338.339844 58.679688 C 338.125 59.207031 337.882812 59.726562 337.613281 60.230469 C 337.347656 60.734375 337.054688 61.226562 336.738281 61.703125 C 336.421875 62.179688 336.082031 62.640625 335.722656 63.082031 C 335.363281 63.527344 334.980469 63.949219 334.578125 64.355469 Z M 334.578125 64.355469 " fill-opacity="1" fill-rule="nonzero"/></g><path fill="#d83e96" d="M 247.480469 287.691406 C 243.894531 286.199219 240.832031 283.984375 238.285156 281.050781 C 232.734375 274.875 229.960938 266.328125 229.96875 255.410156 C 229.96875 243.78125 232.203125 229.574219 236.675781 212.796875 C 241.148438 196.015625 245.46875 181.652344 249.632812 169.710938 C 253.789062 157.761719 258.058594 146.375 262.445312 135.546875 L 274.515625 104.808594 C 261.28125 116.710938 244.511719 141.722656 224.207031 179.84375 L 191.75 241.316406 C 174.402344 273.710938 162.019531 289.90625 154.597656 289.90625 C 147.355469 289.90625 142.394531 286.773438 139.710938 280.507812 C 137.296875 274.515625 136.085938 264.339844 136.085938 249.972656 C 136.085938 235.609375 137.226562 221.828125 139.507812 208.632812 C 141.789062 195.4375 144.671875 182.53125 148.160156 169.910156 C 154.238281 147.625 162.105469 125.519531 171.765625 103.59375 C 162.378906 108.882812 151.960938 120.652344 140.519531 138.902344 C 131.753906 153.484375 125.585938 164.132812 122.011719 170.847656 L 87.40625 234.605469 C 75.777344 255.785156 65.984375 270.421875 58.035156 278.523438 L 149.035156 368.972656 C 149.515625 369.453125 150.019531 369.90625 150.546875 370.335938 C 151.074219 370.765625 151.621094 371.167969 152.1875 371.542969 C 152.753906 371.917969 153.335938 372.265625 153.9375 372.585938 C 154.535156 372.902344 155.152344 373.191406 155.777344 373.449219 C 156.40625 373.707031 157.046875 373.933594 157.699219 374.128906 C 158.347656 374.324219 159.007812 374.484375 159.675781 374.617188 C 160.339844 374.746094 161.011719 374.84375 161.6875 374.910156 C 162.363281 374.972656 163.042969 375.003906 163.722656 375 C 164.402344 375 165.078125 374.964844 165.753906 374.894531 C 166.429688 374.824219 167.101562 374.722656 167.765625 374.589844 C 168.433594 374.453125 169.089844 374.285156 169.738281 374.085938 C 170.390625 373.886719 171.027344 373.65625 171.652344 373.394531 C 172.28125 373.132812 172.894531 372.839844 173.492188 372.515625 C 174.089844 372.195312 174.671875 371.84375 175.234375 371.464844 C 175.796875 371.085938 176.339844 370.679688 176.863281 370.246094 C 177.386719 369.8125 177.890625 369.355469 178.367188 368.871094 L 256.910156 289.722656 C 253.136719 289.40625 249.980469 288.742188 247.480469 287.691406 Z M 247.480469 287.691406 " fill-opacity="1" fill-rule="nonzero"/></svg>